<svg width="30" height="32" viewBox="0 0 30 32" fill="none" xmlns="http://www.w3.org/2000/svg">
<path d="M3.72322 28.2613H22.8201L21.908 25.3213C22.0434 25.4386 29.7321 32 29.7321 32V3.3C29.6411 1.516 28.0982 0 26.1857 0L3.72991 0.004C1.81875 0.004 0.26786 1.52267 0.26786 3.30667V24.96C0.26786 26.8413 1.81607 28.2613 3.72322 28.2613ZM17.85 7.57733L17.8059 7.59333L17.8219 7.57733H17.85ZM7.62991 9.26933C10.0848 7.49067 12.3603 7.576 12.3603 7.576L12.5438 7.756C9.53974 8.46933 8.17768 9.80533 8.17768 9.80533C8.31697 9.776 14.3826 6.292 21.7326 9.89333C21.7326 9.89333 20.3679 8.644 17.5487 7.844L17.7978 7.6C18.1875 7.60133 20.25 7.67333 22.4571 9.28C22.4571 9.28 24.9268 13.48 24.9268 18.64C24.8451 18.5413 23.3946 20.8613 19.6621 20.9413C19.6621 20.9413 19.03 20.2293 18.58 19.608C20.763 18.984 21.58 17.736 21.58 17.736C17.3304 20.4 13.6059 19.984 9.15 18.184C9.10849 18.184 9.08974 18.1653 9.06831 18.144V18.136C9.04688 18.1159 9.02813 18.096 8.98661 18.096H8.90625C8.63304 17.9173 8.4509 17.8293 8.4509 17.8293C8.4509 17.8293 9.26652 19.0773 11.3625 19.7013C10.8121 20.3266 10.267 21.0373 10.267 21.0373C6.53572 20.9493 5.175 18.6293 5.175 18.6293C5.175 13.4613 7.62991 9.26933 7.62991 9.26933Z" fill="black"/>
<path d="M18.0911 17.0281C19.0432 17.0281 19.8187 16.2281 19.8187 15.2415C19.8187 14.2614 19.0473 13.4614 18.0911 13.4614V13.4655C17.1429 13.4655 16.3661 14.2628 16.3634 15.2495C16.3634 16.2281 17.1388 17.0281 18.0911 17.0281Z" fill="black"/>
<path d="M11.9063 17.0281C12.8584 17.0281 13.6339 16.2281 13.6339 15.2415C13.6339 14.2614 12.8638 13.4614 11.9116 13.4614L11.9063 13.4655C10.954 13.4655 10.1786 14.2628 10.1786 15.2495C10.1786 16.2281 10.954 17.0281 11.9063 17.0281Z" fill="black"/>
</svg>
