<svg width="28" height="30" viewBox="0 0 28 30" fill="none" xmlns="http://www.w3.org/2000/svg">
<path d="M3.475 26.495H21.2988L20.4475 23.7387C20.5738 23.8487 27.75 30 27.75 30V3.09375C27.665 1.42125 26.225 0 24.44 0L3.48125 0.00375C1.6975 0.00375 0.25 1.4275 0.25 3.1V23.4C0.25 25.1637 1.695 26.495 3.475 26.495ZM16.66 7.10375L16.6188 7.11875L16.6338 7.10375H16.66ZM7.12125 8.69C9.4125 7.0225 11.5363 7.1025 11.5363 7.1025L11.7075 7.27125C8.90375 7.94 7.6325 9.1925 7.6325 9.1925C7.7625 9.165 13.4238 5.89875 20.2838 9.275C20.2838 9.275 19.01 8.10375 16.3788 7.35375L16.6113 7.125C16.975 7.12625 18.9 7.19375 20.96 8.7C20.96 8.7 23.265 12.6375 23.265 17.475C23.1888 17.3825 21.835 19.5575 18.3513 19.6325C18.3513 19.6325 17.7613 18.965 17.3413 18.3825C19.3788 17.7975 20.1413 16.6275 20.1413 16.6275C16.175 19.125 12.6988 18.735 8.54 17.0475C8.50125 17.0475 8.48375 17.03 8.46375 17.01V17.0025C8.44375 16.9837 8.42625 16.965 8.3875 16.965H8.3125C8.0575 16.7975 7.8875 16.715 7.8875 16.715C7.8875 16.715 8.64875 17.885 10.605 18.47C10.0913 19.0562 9.5825 19.7225 9.5825 19.7225C6.1 19.64 4.83 17.465 4.83 17.465C4.83 12.62 7.12125 8.69 7.12125 8.69Z" fill="#3C1A50"/>
<path d="M16.885 15.9639C17.7737 15.9639 18.4975 15.2139 18.4975 14.2889C18.4975 13.3701 17.7775 12.6201 16.885 12.6201V12.6239C16 12.6239 15.275 13.3714 15.2725 14.2964C15.2725 15.2139 15.9962 15.9639 16.885 15.9639Z" fill="#3C1A50"/>
<path d="M11.1125 15.9639C12.0012 15.9639 12.725 15.2139 12.725 14.2889C12.725 13.3701 12.0062 12.6201 11.1175 12.6201L11.1125 12.6239C10.2237 12.6239 9.5 13.3714 9.5 14.2964C9.5 15.2139 10.2237 15.9639 11.1125 15.9639Z" fill="#3C1A50"/>
</svg>
