<?xml version="1.0" encoding="UTF-8" standalone="no" ?>
<!DOCTYPE svg PUBLIC "-//W3C//DTD SVG 1.1//EN" "http://www.w3.org/Graphics/SVG/1.1/DTD/svg11.dtd">
<svg xmlns="http://www.w3.org/2000/svg" xmlns:xlink="http://www.w3.org/1999/xlink" version="1.1" width="500" height="500" viewBox="0 0 500 500" xml:space="preserve">
<desc>Created with Fabric.js 4.6.0</desc>
<defs>
</defs>
<g transform="matrix(15.37 0 0 15.37 250.35 249.35)" id="WF-OoiyCe7gdm_zwOC7qY"  >
<path style="stroke: none; stroke-width: 1; stroke-dasharray: none; stroke-linecap: butt; stroke-dashoffset: 0; stroke-linejoin: miter; stroke-miterlimit: 4; fill: rgb(56,60,76); fill-rule: nonzero; opacity: 1;" vector-effect="non-scaling-stroke"  transform=" translate(-16, -16)" d="M 0 16 C 0 7.16344 7.16344 0 16 0 C 24.83656 0 32 7.16344 32 16 C 32 24.83656 24.83656 32 16 32 C 7.16344 32 0 24.83656 0 16 z" stroke-linecap="round" />
</g>
<g transform="matrix(15.37 0 0 15.37 315.66 158.85)" id="MyXhAttfJZIK5Hf5UzvaI"  >
<path style="stroke: none; stroke-width: 1; stroke-dasharray: none; stroke-linecap: butt; stroke-dashoffset: 0; stroke-linejoin: miter; stroke-miterlimit: 4; fill: rgb(255,255,255); fill-rule: nonzero; opacity: 1;" vector-effect="non-scaling-stroke"  transform=" translate(-20.25, -10.11)" d="M 16.498 4 L 16.498 12.87 L 23.995 16.22 z" stroke-linecap="round" />
</g>
<g transform="matrix(15.37 0 0 15.37 200.41 158.85)" id="yM7s6lh79oxc66ykp2znI"  >
<path style="stroke: none; stroke-width: 1; stroke-dasharray: none; stroke-linecap: butt; stroke-dashoffset: 0; stroke-linejoin: miter; stroke-miterlimit: 4; fill: rgb(255,255,255); fill-rule: nonzero; opacity: 1;" vector-effect="non-scaling-stroke"  transform=" translate(-12.75, -10.11)" d="M 16.498 4 L 9 16.22 L 16.498 12.87 z" stroke-linecap="round" />
</g>
<g transform="matrix(15.37 0 0 15.37 315.66 353.99)" id="aIqsSwBe2Vc4bC9fOYkJX"  >
<path style="stroke: none; stroke-width: 1; stroke-dasharray: none; stroke-linecap: butt; stroke-dashoffset: 0; stroke-linejoin: miter; stroke-miterlimit: 4; fill: rgb(255,255,255); fill-rule: nonzero; opacity: 1;" vector-effect="non-scaling-stroke"  transform=" translate(-20.25, -22.81)" d="M 16.498 21.968 L 16.498 27.995 L 24 17.616 z" stroke-linecap="round" />
</g>
<g transform="matrix(15.37 0 0 15.37 200.41 353.99)" id="uCGTZrA4dFyZpJkKH-Auk"  >
<path style="stroke: none; stroke-width: 1; stroke-dasharray: none; stroke-linecap: butt; stroke-dashoffset: 0; stroke-linejoin: miter; stroke-miterlimit: 4; fill: rgb(255,255,255); fill-rule: nonzero; opacity: 1;" vector-effect="non-scaling-stroke"  transform=" translate(-12.75, -22.81)" d="M 16.498 27.995 L 16.498 21.967000000000002 L 9 17.616 z" stroke-linecap="round" />
</g>
<g transform="matrix(15.37 0 0 15.37 315.66 260.41)" id="n97uALANbEmxdyYADigXL"  >
<path style="stroke: none; stroke-width: 1; stroke-dasharray: none; stroke-linecap: butt; stroke-dashoffset: 0; stroke-linejoin: miter; stroke-miterlimit: 4; fill: rgb(255,255,255); fill-rule: nonzero; opacity: 1;" vector-effect="non-scaling-stroke"  transform=" translate(-20.25, -16.72)" d="M 16.498 20.573 L 23.995 16.22 L 16.498 12.872 z" stroke-linecap="round" />
</g>
<g transform="matrix(15.37 0 0 15.37 200.41 260.41)" id="WU6_m9oay75jzTkZRRRTY"  >
<path style="stroke: none; stroke-width: 1; stroke-dasharray: none; stroke-linecap: butt; stroke-dashoffset: 0; stroke-linejoin: miter; stroke-miterlimit: 4; fill: rgb(255,255,255); fill-rule: nonzero; opacity: 1;" vector-effect="non-scaling-stroke"  transform=" translate(-12.75, -16.72)" d="M 9 16.22 L 16.498 20.573 L 16.498 12.872 z" stroke-linecap="round" />
</g>
</svg>