<svg width="83" height="32" viewBox="0 0 83 32" fill="none" xmlns="http://www.w3.org/2000/svg">
<path d="M41.927 24.2303C41.6165 24.2851 41.3018 24.3117 40.9865 24.3099C40.3155 24.3099 39.8432 24.1862 39.5697 23.9389C39.2962 23.6915 39.1594 23.276 39.1594 22.6924V8.03033C39.3005 7.99438 39.5255 7.94988 39.8345 7.89682C40.1364 7.84478 40.4423 7.81837 40.7487 7.81787C41.3838 7.81787 41.8516 7.93276 42.152 8.16255C42.4525 8.39234 42.602 8.81661 42.6008 9.43536V14.6588H49.22V8.03033C49.361 7.99438 49.5862 7.94988 49.8957 7.89682C50.1974 7.84476 50.503 7.81835 50.8092 7.81787C51.4447 7.81787 51.9125 7.93704 52.2125 8.17539C52.5126 8.41373 52.6622 8.84164 52.6613 9.45911V24.0936C52.5023 24.1289 52.2767 24.1738 51.9856 24.2264C51.6754 24.2812 51.3608 24.3079 51.0458 24.306C50.3743 24.306 49.9021 24.1824 49.629 23.935C49.3559 23.6877 49.2189 23.2722 49.218 22.6885V17.4124H42.5995V24.0974C42.4399 24.134 42.2155 24.1776 41.927 24.2303Z" fill="white"/>
<path d="M67.6524 17.8399C67.6524 18.8669 67.4979 19.7908 67.1889 20.6115C66.9025 21.3982 66.456 22.1169 65.8778 22.7219C65.3037 23.3115 64.608 23.7684 63.8392 24.0609C63.0443 24.3694 62.1525 24.5241 61.164 24.5249C60.1754 24.5258 59.2839 24.3711 58.4893 24.0609C57.7227 23.7699 57.0273 23.3177 56.4501 22.7348C55.8703 22.1371 55.4235 21.4233 55.139 20.6404C54.83 19.8184 54.6755 18.8857 54.6755 17.8425C54.6755 16.8181 54.83 15.8947 55.139 15.0722C55.4249 14.2866 55.8767 13.572 56.4635 12.9772C57.0472 12.3965 57.7461 11.9449 58.515 11.6517C59.3099 11.3424 60.1927 11.1877 61.1633 11.1877C62.1339 11.1877 63.0167 11.3424 63.8116 11.6517C64.583 11.9465 65.2824 12.403 65.8631 12.9907C66.4477 13.5921 66.8989 14.3104 67.1869 15.0985C67.4964 15.9193 67.6515 16.8331 67.6524 17.8399ZM61.164 13.8366C60.2109 13.8366 59.4606 14.1856 58.9131 14.8835C58.3656 15.5814 58.0919 16.5669 58.0919 17.8399C58.0919 19.1309 58.3611 20.1209 58.8996 20.8098C59.4382 21.4988 60.1929 21.8434 61.164 21.8439C62.1346 21.8439 62.8893 21.4947 63.4283 20.7964C63.9672 20.098 64.2365 19.1125 64.236 17.8399C64.236 16.5678 63.9623 15.5823 63.4148 14.8835C62.8673 14.1847 62.117 13.8358 61.164 13.8366Z" fill="white"/>
<path d="M75.7555 24.4954C75.2793 24.499 74.8042 24.4502 74.3387 24.3497C73.9371 24.2618 73.5431 24.1422 73.1604 23.9921V28.8703C73.0014 28.9054 72.7896 28.9497 72.5251 29.0032C72.2292 29.0587 71.9286 29.0854 71.6276 29.0828C71.0096 29.0828 70.5505 28.9679 70.2505 28.7381C69.9505 28.5083 69.8009 28.1018 69.8018 27.5185V14.0754C69.8018 13.6513 69.8855 13.3066 70.0531 13.0413C70.2206 12.776 70.4899 12.5285 70.8608 12.2987C71.3737 11.9992 72.0094 11.7384 72.7681 11.5163C73.5267 11.2942 74.3829 11.1838 75.3369 11.1851C76.2472 11.1766 77.1535 11.3065 78.0249 11.5702C78.8134 11.8087 79.5407 12.2159 80.1565 12.7634C80.7549 13.3026 81.2227 13.9872 81.5599 14.8174C81.8971 15.6475 82.0648 16.6375 82.0631 17.7873C82.0631 18.8998 81.9044 19.872 81.5868 20.7039C81.2693 21.5357 80.8322 22.2339 80.2758 22.7983C79.7167 23.366 79.0376 23.8009 78.2884 24.0711C77.4758 24.3615 76.6182 24.5051 75.7555 24.4954ZM75.2529 21.8175C76.312 21.8175 77.1417 21.4904 77.7422 20.8361C78.3427 20.1818 78.6419 19.1656 78.6397 17.7873C78.6397 16.3559 78.3307 15.3396 77.7127 14.7384C77.0947 14.1372 76.3004 13.8366 75.3298 13.8366C74.903 13.8292 74.4779 13.8918 74.0714 14.0221C73.7481 14.1297 73.4338 14.2628 73.1315 14.4201V21.2341C73.4249 21.4162 73.7409 21.5588 74.0714 21.6583C74.4551 21.77 74.8533 21.8236 75.2529 21.8175V21.8175Z" fill="white"/>
<path d="M30.6227 10.2698L24.108 0.781144C23.0848 -0.706049 20.7712 0.0834406 20.8468 1.89028C20.9161 3.5373 21.5309 5.28059 23.0021 7.41992C23.0028 7.42111 23.0031 7.42248 23.003 7.42385C23.0028 7.42521 23.0022 7.42648 23.0013 7.42749C23.0004 7.42849 22.9991 7.42917 22.9978 7.42943C22.9964 7.42968 22.995 7.4295 22.9938 7.42891C22.3918 6.9796 13.3173 0.156613 2.5304 3.78955H2.51821C1.32772 4.23629 0.719973 5.21127 1.02128 6.35443C1.30015 7.41286 2.38423 8.0483 3.46189 7.86922C5.75313 7.48732 8.02705 7.30567 10.2632 7.50208C12.4993 7.69849 14.6866 8.27231 16.7234 9.27426C18.7601 10.2762 20.6051 11.6941 22.3008 13.318C24.208 15.1428 26.5743 19.0344 26.5743 19.0344C26.713 19.281 26.9342 19.4707 27.1989 19.5699C27.4636 19.6691 27.7549 19.6716 28.0212 19.5768C28.6623 19.347 28.961 18.6069 28.72 17.9721C28.2173 16.6452 27.6019 15.3639 26.8807 14.1421C26.8797 14.141 26.8791 14.1395 26.8791 14.1379C26.879 14.1363 26.8796 14.1348 26.8806 14.1336C26.8816 14.1325 26.8831 14.1317 26.8846 14.1315C26.8862 14.1313 26.8877 14.1316 26.889 14.1325C27.6866 14.4329 28.4244 14.8071 29.2976 14.6024C30.0098 14.4348 30.6349 13.9496 30.9253 13.2705C31.1356 12.7862 31.2181 12.256 31.1652 11.7306C31.1122 11.2052 30.9254 10.7022 30.6227 10.2698V10.2698Z" fill="url(#paint0_linear_950_99)"/>
<path d="M0.557929 20.7525L7.07264 30.2411C8.09581 31.7283 10.4095 30.9388 10.3338 29.132C10.2646 27.485 9.6498 25.7417 8.17851 23.6024C8.17782 23.6012 8.17754 23.5998 8.17769 23.5984C8.17785 23.5971 8.17843 23.5958 8.17937 23.5948C8.1803 23.5938 8.18152 23.5931 8.18287 23.5928C8.18421 23.5926 8.18561 23.5928 8.18684 23.5934C8.78882 24.0427 17.8634 30.8657 28.6503 27.2327H28.6624C29.8529 26.786 30.4607 25.811 30.1594 24.6678C29.8805 23.6094 28.7964 22.974 27.7188 23.1531C25.4275 23.535 23.1536 23.7166 20.9175 23.5202C18.6814 23.3238 16.494 22.75 14.4573 21.748C12.4206 20.7461 10.5755 19.3282 8.87985 17.7043C6.97263 15.8795 4.60638 11.9879 4.60638 11.9879C4.4677 11.7412 4.24648 11.5516 3.98175 11.4524C3.71703 11.3531 3.4258 11.3507 3.15945 11.4455C2.51837 11.6753 2.21962 12.4153 2.46067 13.0501C2.96338 14.3771 3.57872 15.6584 4.29994 16.8801C4.30099 16.8813 4.30158 16.8828 4.30159 16.8844C4.30161 16.8859 4.30105 16.8875 4.30003 16.8886C4.299 16.8898 4.29758 16.8906 4.29603 16.8908C4.29448 16.891 4.29291 16.8906 4.29161 16.8898C3.4941 16.5894 2.75621 16.2152 1.88305 16.4199C1.17081 16.5874 0.545749 17.0727 0.255337 17.7518C0.0450898 18.2361 -0.0374943 18.7663 0.0154862 19.2917C0.0684667 19.8171 0.255239 20.32 0.557929 20.7525V20.7525Z" fill="url(#paint1_linear_950_99)"/>
<defs>
<linearGradient id="paint0_linear_950_99" x1="32.7813" y1="28.6322" x2="-5.471" y2="-18.4216" gradientUnits="userSpaceOnUse">
<stop offset="0.15" stop-color="#B32EFF"/>
<stop offset="0.42" stop-color="#CE60D3"/>
<stop offset="0.65" stop-color="#E185B3"/>
<stop offset="0.84" stop-color="#EE9C9F"/>
<stop offset="0.96" stop-color="#F2A498"/>
</linearGradient>
<linearGradient id="paint1_linear_950_99" x1="-1.6006" y1="2.39009" x2="36.6517" y2="49.4439" gradientUnits="userSpaceOnUse">
<stop offset="0.15" stop-color="#B32EFF"/>
<stop offset="0.42" stop-color="#CE60D3"/>
<stop offset="0.65" stop-color="#E185B3"/>
<stop offset="0.84" stop-color="#EE9C9F"/>
<stop offset="0.96" stop-color="#F2A498"/>
</linearGradient>
</defs>
</svg>
