<svg width="83" height="32" viewBox="0 0 83 32" fill="none" xmlns="http://www.w3.org/2000/svg">
<path d="M41.9269 24.2289C41.6164 24.2837 41.3017 24.3104 40.9864 24.3085C40.3154 24.3085 39.8431 24.1849 39.5696 23.9375C39.2961 23.6902 39.1593 23.2747 39.1593 22.691V8.02898C39.3004 7.99304 39.5254 7.94854 39.8344 7.89548C40.1363 7.84344 40.4422 7.81703 40.7486 7.81653C41.3837 7.81653 41.8514 7.93142 42.1519 8.16121C42.4524 8.39099 42.6019 8.81527 42.6007 9.43402V14.6575H49.2199V8.02898C49.3609 7.99304 49.5861 7.94854 49.8956 7.89548C50.1973 7.84341 50.5029 7.817 50.8091 7.81653C51.4446 7.81653 51.9124 7.9357 52.2124 8.17405C52.5125 8.41239 52.6621 8.8403 52.6612 9.45777V24.0922C52.5022 24.1275 52.2765 24.1725 51.9855 24.2251C51.6753 24.2799 51.3607 24.3065 51.0457 24.3047C50.3742 24.3047 49.902 24.181 49.6289 23.9337C49.3558 23.6863 49.2188 23.2708 49.2179 22.6872V17.4111H42.5994V24.0961C42.4397 24.1327 42.2154 24.1763 41.9269 24.2289Z" fill="white"/>
<path d="M67.6524 17.8386C67.6524 18.8656 67.4979 19.7894 67.1889 20.6102C66.9025 21.3969 66.4561 22.1155 65.8779 22.7206C65.3038 23.3101 64.608 23.7671 63.8392 24.0595C63.0443 24.368 62.1526 24.5227 61.164 24.5236C60.1754 24.5244 59.2839 24.3698 58.4894 24.0595C57.7228 23.7685 57.0274 23.3163 56.4501 22.7334C55.8703 22.1358 55.4235 21.422 55.1391 20.639C54.8301 19.817 54.6756 18.8844 54.6756 17.8412C54.6756 16.8168 54.8301 15.8933 55.1391 15.0709C55.425 14.2853 55.8767 13.5707 56.4636 12.9759C57.0472 12.3951 57.7461 11.9436 58.515 11.6504C59.31 11.341 60.1928 11.1863 61.1634 11.1863C62.134 11.1863 63.0167 11.341 63.8117 11.6504C64.583 11.9452 65.2825 12.4017 65.8632 12.9893C66.4478 13.5908 66.8989 14.3091 67.187 15.0972C67.4964 15.9179 67.6516 16.8317 67.6524 17.8386ZM61.164 13.8353C60.2109 13.8353 59.4606 14.1843 58.9132 14.8822C58.3657 15.5801 58.0919 16.5656 58.0919 17.8386C58.0919 19.1296 58.3612 20.1196 58.8997 20.8085C59.4382 21.4974 60.193 21.8421 61.164 21.8425C62.1346 21.8425 62.8894 21.4934 63.4283 20.795C63.9673 20.0967 64.2365 19.1112 64.2361 17.8386C64.2361 16.5664 63.9623 15.581 63.4148 14.8822C62.8674 14.1834 62.1171 13.8344 61.164 13.8353Z" fill="white"/>
<path d="M75.7556 24.494C75.2794 24.4977 74.8043 24.4488 74.3388 24.3483C73.9372 24.2604 73.5432 24.1409 73.1605 23.9908V28.869C73.0015 28.904 72.7897 28.9483 72.5252 29.0018C72.2293 29.0574 71.9287 29.084 71.6277 29.0814C71.0097 29.0814 70.5506 28.9665 70.2506 28.7367C69.9506 28.5069 69.801 28.1004 69.8019 27.5172V14.074C69.8019 13.65 69.8856 13.3053 70.0532 13.04C70.2207 12.7747 70.49 12.5272 70.8609 12.2974C71.3738 11.9978 72.0095 11.737 72.7682 11.5149C73.5268 11.2929 74.383 11.1825 75.337 11.1837C76.2473 11.1753 77.1536 11.3051 78.025 11.5689C78.8135 11.8074 79.5408 12.2145 80.1566 12.7621C80.755 13.3012 81.2228 13.9859 81.56 14.816C81.8972 15.6462 82.0649 16.6361 82.0632 17.7859C82.0632 18.8985 81.9045 19.8707 81.5869 20.7025C81.2694 21.5344 80.8323 22.2325 80.2759 22.7969C79.7168 23.3646 79.0377 23.7996 78.2885 24.0698C77.4759 24.3601 76.6183 24.5038 75.7556 24.494ZM75.253 21.8162C76.3121 21.8162 77.1418 21.489 77.7423 20.8348C78.3428 20.1805 78.642 19.1642 78.6398 17.7859C78.6398 16.3546 78.3308 15.3383 77.7128 14.7371C77.0948 14.1359 76.3005 13.8353 75.3299 13.8353C74.9031 13.8278 74.478 13.8905 74.0715 14.0208C73.7482 14.1284 73.4339 14.2615 73.1316 14.4187V21.2327C73.425 21.4148 73.741 21.5575 74.0715 21.657C74.4552 21.7686 74.8534 21.8223 75.253 21.8162V21.8162Z" fill="white"/>
<path d="M30.6227 10.2684L24.108 0.779801C23.0849 -0.707392 20.7712 0.0820979 20.8468 1.88894C20.9161 3.53596 21.5309 5.27925 23.0022 7.41858C23.0028 7.41977 23.0031 7.42114 23.003 7.4225C23.0028 7.42386 23.0022 7.42514 23.0013 7.42615C23.0004 7.42715 22.9991 7.42783 22.9978 7.42808C22.9965 7.42834 22.9951 7.42816 22.9938 7.42756C22.3919 6.97826 13.3173 0.15527 2.53041 3.78821H2.51823C1.32774 4.23494 0.719988 5.20993 1.0213 6.35309C1.30017 7.41152 2.38424 8.04696 3.46191 7.86788C5.75314 7.48597 8.02707 7.30433 10.2632 7.50074C12.4993 7.69714 14.6867 8.27097 16.7234 9.27292C18.7601 10.2749 20.6051 11.6927 22.3008 13.3166C24.208 15.1415 26.5743 19.0331 26.5743 19.0331C26.713 19.2797 26.9342 19.4693 27.1989 19.5686C27.4636 19.6678 27.7549 19.6702 28.0212 19.5754C28.6623 19.3457 28.961 18.6056 28.72 17.9708C28.2173 16.6439 27.6019 15.3625 26.8807 14.1408C26.8797 14.1396 26.8791 14.1381 26.8791 14.1366C26.8791 14.135 26.8796 14.1335 26.8806 14.1323C26.8817 14.1311 26.8831 14.1303 26.8846 14.1301C26.8862 14.1299 26.8878 14.1303 26.8891 14.1312C27.6866 14.4316 28.4245 14.8058 29.2976 14.601C30.0099 14.4335 30.6349 13.9482 30.9253 13.2691C31.1356 12.7849 31.2182 12.2546 31.1652 11.7293C31.1122 11.2039 30.9254 10.7009 30.6227 10.2684V10.2684Z" fill="url(#paint0_linear_1002_212)"/>
<path d="M0.558036 20.7512L7.07274 30.2399C8.09591 31.727 10.4096 30.9376 10.3339 29.1307C10.2647 27.4837 9.6499 25.7404 8.17861 23.6011C8.17793 23.5999 8.17765 23.5985 8.1778 23.5971C8.17795 23.5958 8.17854 23.5945 8.17947 23.5935C8.1804 23.5925 8.18163 23.5918 8.18298 23.5916C8.18432 23.5913 8.18571 23.5915 8.18695 23.5921C8.78892 24.0414 17.8635 30.8644 28.6504 27.2314H28.6626C29.853 26.7847 30.4608 25.8097 30.1595 24.6666C29.8806 23.6081 28.7965 22.9727 27.7189 23.1518C25.4276 23.5337 23.1537 23.7153 20.9176 23.5189C18.6815 23.3225 16.4941 22.7487 14.4574 21.7467C12.4207 20.7448 10.5756 19.3269 8.87996 17.703C6.97273 15.8782 4.60649 11.9866 4.60649 11.9866C4.46781 11.74 4.24659 11.5503 3.98186 11.4511C3.71713 11.3519 3.42591 11.3494 3.15956 11.4442C2.51847 11.674 2.21973 12.4141 2.46078 13.0489C2.96349 14.3758 3.57883 15.6571 4.30005 16.8789C4.3011 16.88 4.30168 16.8815 4.3017 16.8831C4.30171 16.8847 4.30116 16.8862 4.30013 16.8874C4.29911 16.8885 4.29769 16.8893 4.29614 16.8895C4.29459 16.8897 4.29301 16.8894 4.29172 16.8885C3.49421 16.5881 2.75632 16.2139 1.88316 16.4186C1.17091 16.5862 0.545856 17.0714 0.255444 17.7505C0.0451966 18.2348 -0.0373875 18.765 0.015593 19.2904C0.0685735 19.8158 0.255345 20.3188 0.558036 20.7512V20.7512Z" fill="url(#paint1_linear_1002_212)"/>
<defs>
<linearGradient id="paint0_linear_1002_212" x1="32.7813" y1="28.6308" x2="-5.47099" y2="-18.423" gradientUnits="userSpaceOnUse">
<stop offset="0.15" stop-color="#089E71"/>
<stop offset="0.42" stop-color="#CE60D3"/>
<stop offset="0.65" stop-color="#E185B3"/>
<stop offset="0.84" stop-color="#EE9C9F"/>
<stop offset="0.96" stop-color="#F2A498"/>
</linearGradient>
<linearGradient id="paint1_linear_1002_212" x1="-1.6005" y1="2.38881" x2="36.6518" y2="49.4427" gradientUnits="userSpaceOnUse">
<stop offset="0.15" stop-color="#089E71"/>
<stop offset="0.42" stop-color="#CE60D3"/>
<stop offset="0.65" stop-color="#E185B3"/>
<stop offset="0.84" stop-color="#EE9C9F"/>
<stop offset="0.96" stop-color="#F2A498"/>
</linearGradient>
</defs>
</svg>
