<svg width="30" height="30" viewBox="0 0 30 30" fill="none" xmlns="http://www.w3.org/2000/svg">
<rect width="30" height="30" rx="15" fill="url(#paint0_linear_384_78)"/>
<path d="M22.7171 12.207L19.415 7.39543C18.8964 6.64129 17.7237 7.04163 17.762 7.95786C17.7971 8.79305 18.1088 9.67706 18.8545 10.7619C18.8549 10.7625 18.855 10.7632 18.8549 10.7639C18.8548 10.7646 18.8545 10.7652 18.8541 10.7657C18.8536 10.7662 18.853 10.7666 18.8523 10.7667C18.8516 10.7668 18.8509 10.7667 18.8503 10.7664C18.5452 10.5386 13.9455 7.07874 8.47799 8.92096H8.47181C7.86839 9.1475 7.56034 9.64191 7.71306 10.2216C7.85441 10.7583 8.4039 11.0805 8.95014 10.9897C10.1115 10.7961 11.2641 10.704 12.3975 10.8036C13.5309 10.9031 14.6396 11.1941 15.672 11.7022C16.7043 12.2103 17.6395 12.9293 18.499 13.7527C19.4657 14.6781 20.6651 16.6515 20.6651 16.6515C20.7354 16.7765 20.8475 16.8727 20.9817 16.923C21.1159 16.9733 21.2635 16.9746 21.3985 16.9265C21.7235 16.81 21.8749 16.4347 21.7527 16.1128C21.4979 15.4399 21.186 14.7902 20.8204 14.1707C20.8199 14.1701 20.8196 14.1693 20.8196 14.1685C20.8196 14.1677 20.8199 14.167 20.8204 14.1664C20.8209 14.1657 20.8216 14.1654 20.8224 14.1653C20.8232 14.1652 20.824 14.1653 20.8247 14.1658C21.2289 14.3181 21.6029 14.5079 22.0455 14.404C22.4065 14.3191 22.7233 14.073 22.8705 13.7287C22.9771 13.4831 23.019 13.2142 22.9921 12.9478C22.9652 12.6814 22.8706 12.4263 22.7171 12.207V12.207Z" fill="white"/>
<path d="M7.28285 17.793L10.585 22.6046C11.1036 23.3587 12.2763 22.9584 12.238 22.0421C12.2029 21.2069 11.8913 20.3229 11.1455 19.2381C11.1452 19.2375 11.145 19.2368 11.1451 19.2361C11.1452 19.2354 11.1455 19.2348 11.1459 19.2343C11.1464 19.2338 11.147 19.2334 11.1477 19.2333C11.1484 19.2332 11.1491 19.2332 11.1497 19.2335C11.4548 19.4614 16.0545 22.9213 21.522 21.079H21.5282C22.1316 20.8525 22.4397 20.3581 22.287 19.7784C22.1456 19.2417 21.5961 18.9195 21.0499 19.0103C19.8885 19.2039 18.7359 19.296 17.6025 19.1964C16.4691 19.0968 15.3604 18.8059 14.328 18.2978C13.2957 17.7897 12.3605 17.0707 11.501 16.2472C10.5343 15.3219 9.33489 13.3485 9.33489 13.3485C9.2646 13.2234 9.15247 13.1273 9.01829 13.0769C8.88411 13.0266 8.73649 13.0254 8.60149 13.0735C8.27654 13.19 8.12512 13.5653 8.2473 13.8872C8.50211 14.56 8.814 15.2098 9.17957 15.8293C9.1801 15.8299 9.1804 15.8307 9.18041 15.8315C9.18041 15.8323 9.18013 15.833 9.17961 15.8336C9.17909 15.8342 9.17837 15.8346 9.17759 15.8347C9.1768 15.8348 9.176 15.8346 9.17534 15.8342C8.77111 15.6819 8.3971 15.4921 7.95452 15.5959C7.5935 15.6809 7.27668 15.927 7.12948 16.2713C7.02291 16.5169 6.98105 16.7858 7.00791 17.0522C7.03476 17.3186 7.12943 17.5737 7.28285 17.793V17.793Z" fill="white"/>
<defs>
<linearGradient id="paint0_linear_384_78" x1="-2.05636e-06" y1="-8.5" x2="30" y2="25.5" gradientUnits="userSpaceOnUse">
<stop offset="0.0268359" stop-color="#B32EFF"/>
<stop offset="1" stop-color="#EE9C9F"/>
</linearGradient>
</defs>
</svg>
