<svg width="83" height="32" viewBox="0 0 83 32" fill="none" xmlns="http://www.w3.org/2000/svg">
<path d="M41.927 24.7942C41.6165 24.849 41.3018 24.8756 40.9865 24.8738C40.3155 24.8738 39.8432 24.7501 39.5697 24.5028C39.2962 24.2554 39.1594 23.8399 39.1594 23.2563V8.59423C39.3005 8.55829 39.5255 8.51378 39.8345 8.46072C40.1364 8.40869 40.4423 8.38228 40.7487 8.38177C41.3838 8.38177 41.8516 8.49667 42.152 8.72645C42.4525 8.95624 42.602 9.38051 42.6008 9.99927V15.2227H49.22V8.59423C49.361 8.55829 49.5862 8.51378 49.8957 8.46072C50.1974 8.40866 50.503 8.38225 50.8092 8.38177C51.4447 8.38177 51.9125 8.50095 52.2125 8.73929C52.5126 8.97764 52.6622 9.40554 52.6613 10.023V24.6575C52.5023 24.6928 52.2767 24.7377 51.9856 24.7903C51.6754 24.8451 51.3608 24.8718 51.0458 24.8699C50.3743 24.8699 49.9021 24.7463 49.629 24.4989C49.3559 24.2516 49.2189 23.8361 49.218 23.2524V17.9763H42.5995V24.6613C42.4399 24.6979 42.2155 24.7415 41.927 24.7942Z" fill="#0B091E"/>
<path d="M67.6524 18.4038C67.6524 19.4308 67.4979 20.3547 67.1889 21.1754C66.9025 21.9621 66.456 22.6808 65.8778 23.2858C65.3037 23.8754 64.608 24.3323 63.8392 24.6248C63.0443 24.9333 62.1525 25.088 61.164 25.0888C60.1754 25.0897 59.2839 24.935 58.4893 24.6248C57.7227 24.3338 57.0273 23.8816 56.4501 23.2987C55.8703 22.701 55.4235 21.9872 55.139 21.2043C54.83 20.3823 54.6755 19.4496 54.6755 18.4064C54.6755 17.382 54.83 16.4586 55.139 15.6361C55.4249 14.8505 55.8767 14.1359 56.4635 13.5411C57.0472 12.9604 57.7461 12.5088 58.515 12.2157C59.3099 11.9063 60.1927 11.7516 61.1633 11.7516C62.1339 11.7516 63.0167 11.9063 63.8116 12.2157C64.583 12.5104 65.2824 12.967 65.8631 13.5546C66.4477 14.156 66.8989 14.8743 67.1869 15.6624C67.4964 16.4832 67.6515 17.397 67.6524 18.4038ZM61.164 14.4006C60.2109 14.4006 59.4606 14.7495 58.9131 15.4474C58.3656 16.1453 58.0919 17.1308 58.0919 18.4038C58.0919 19.6948 58.3611 20.6848 58.8996 21.3737C59.4382 22.0627 60.1929 22.4073 61.164 22.4078C62.1346 22.4078 62.8893 22.0586 63.4283 21.3603C63.9672 20.6619 64.2365 19.6764 64.236 18.4038C64.236 17.1317 63.9623 16.1462 63.4148 15.4474C62.8673 14.7487 62.117 14.3997 61.164 14.4006Z" fill="#0B091E"/>
<path d="M75.7555 25.0593C75.2793 25.0629 74.8042 25.0141 74.3387 24.9136C73.9371 24.8257 73.5431 24.7061 73.1604 24.5561V29.4342C73.0014 29.4693 72.7896 29.5136 72.5251 29.5671C72.2292 29.6226 71.9286 29.6493 71.6276 29.6467C71.0096 29.6467 70.5505 29.5318 70.2505 29.302C69.9505 29.0722 69.8009 28.6657 69.8018 28.0824V14.6393C69.8018 14.2152 69.8855 13.8706 70.0531 13.6052C70.2206 13.3399 70.4899 13.0924 70.8608 12.8626C71.3737 12.5631 72.0094 12.3023 72.7681 12.0802C73.5267 11.8581 74.3829 11.7477 75.3369 11.749C76.2472 11.7405 77.1535 11.8704 78.0249 12.1341C78.8134 12.3726 79.5407 12.7798 80.1565 13.3273C80.7549 13.8665 81.2227 14.5511 81.5599 15.3813C81.8971 16.2114 82.0648 17.2014 82.0631 18.3512C82.0631 19.4637 81.9044 20.4359 81.5868 21.2678C81.2693 22.0996 80.8322 22.7978 80.2758 23.3622C79.7167 23.9299 79.0376 24.3648 78.2884 24.635C77.4758 24.9254 76.6182 25.069 75.7555 25.0593ZM75.2529 22.3814C76.312 22.3814 77.1417 22.0543 77.7422 21.4C78.3427 20.7457 78.6419 19.7295 78.6397 18.3512C78.6397 16.9198 78.3307 15.9035 77.7127 15.3023C77.0947 14.7011 76.3004 14.4005 75.3298 14.4005C74.903 14.3931 74.4779 14.4557 74.0714 14.586C73.7481 14.6936 73.4338 14.8267 73.1315 14.984V21.798C73.4249 21.9801 73.7409 22.1227 74.0714 22.2222C74.4551 22.3339 74.8533 22.3875 75.2529 22.3814V22.3814Z" fill="#0B091E"/>
<path d="M30.6227 10.8337L24.108 1.34505C23.0848 -0.142146 20.7712 0.647344 20.8468 2.45419C20.9161 4.1012 21.5309 5.8445 23.0021 7.98382C23.0028 7.98501 23.0031 7.98639 23.003 7.98775C23.0028 7.98911 23.0022 7.99039 23.0013 7.99139C23.0004 7.9924 22.9991 7.99308 22.9978 7.99333C22.9964 7.99359 22.995 7.9934 22.9938 7.99281C22.3918 7.54351 13.3173 0.720517 2.5304 4.35345H2.51821C1.32772 4.80019 0.719973 5.77518 1.02128 6.91833C1.30015 7.97676 2.38423 8.61221 3.46189 8.43313C5.75313 8.05122 8.02705 7.86957 10.2632 8.06598C12.4993 8.26239 14.6866 8.83622 16.7234 9.83816C18.7601 10.8401 20.6051 12.258 22.3008 13.8819C24.208 15.7067 26.5743 19.5983 26.5743 19.5983C26.713 19.8449 26.9342 20.0346 27.1989 20.1338C27.4636 20.233 27.7549 20.2355 28.0212 20.1407C28.6623 19.9109 28.961 19.1708 28.72 18.536C28.2173 17.2091 27.6019 15.9278 26.8807 14.706C26.8797 14.7049 26.8791 14.7034 26.8791 14.7018C26.879 14.7002 26.8796 14.6987 26.8806 14.6975C26.8816 14.6964 26.8831 14.6956 26.8846 14.6954C26.8862 14.6952 26.8877 14.6955 26.889 14.6964C27.6866 14.9968 28.4244 15.371 29.2976 15.1663C30.0098 14.9987 30.6349 14.5135 30.9253 13.8344C31.1356 13.3501 31.2181 12.8199 31.1652 12.2945C31.1122 11.7691 30.9254 11.2661 30.6227 10.8337V10.8337Z" fill="url(#paint0_linear_950_98)"/>
<path d="M0.557929 21.3164L7.07264 30.805C8.09581 32.2922 10.4095 31.5027 10.3338 29.6959C10.2646 28.0489 9.6498 26.3056 8.17851 24.1663C8.17782 24.1651 8.17754 24.1637 8.17769 24.1623C8.17785 24.161 8.17843 24.1597 8.17937 24.1587C8.1803 24.1577 8.18152 24.157 8.18287 24.1568C8.18421 24.1565 8.18561 24.1567 8.18684 24.1573C8.78882 24.6066 17.8634 31.4296 28.6503 27.7966H28.6624C29.8529 27.3499 30.4607 26.3749 30.1594 25.2317C29.8805 24.1733 28.7964 23.5379 27.7188 23.717C25.4275 24.0989 23.1536 24.2805 20.9175 24.0841C18.6814 23.8877 16.494 23.3139 14.4573 22.3119C12.4206 21.31 10.5755 19.8921 8.87985 18.2682C6.97263 16.4434 4.60638 12.5518 4.60638 12.5518C4.4677 12.3052 4.24648 12.1155 3.98175 12.0163C3.71703 11.917 3.4258 11.9146 3.15945 12.0094C2.51837 12.2392 2.21962 12.9792 2.46067 13.614C2.96338 14.941 3.57872 16.2223 4.29994 17.444C4.30099 17.4452 4.30158 17.4467 4.30159 17.4483C4.30161 17.4498 4.30105 17.4514 4.30003 17.4525C4.299 17.4537 4.29758 17.4545 4.29603 17.4547C4.29448 17.4549 4.29291 17.4545 4.29161 17.4537C3.4941 17.1533 2.75621 16.7791 1.88305 16.9838C1.17081 17.1513 0.545749 17.6366 0.255337 18.3157C0.0450898 18.8 -0.0374943 19.3302 0.0154862 19.8556C0.0684667 20.381 0.255239 20.884 0.557929 21.3164V21.3164Z" fill="url(#paint1_linear_950_98)"/>
<defs>
<linearGradient id="paint0_linear_950_98" x1="32.7813" y1="29.1961" x2="-5.471" y2="-17.8577" gradientUnits="userSpaceOnUse">
<stop offset="0.15" stop-color="#B32EFF"/>
<stop offset="0.42" stop-color="#CE60D3"/>
<stop offset="0.65" stop-color="#E185B3"/>
<stop offset="0.84" stop-color="#EE9C9F"/>
<stop offset="0.96" stop-color="#F2A498"/>
</linearGradient>
<linearGradient id="paint1_linear_950_98" x1="-1.6006" y1="2.954" x2="36.6517" y2="50.0078" gradientUnits="userSpaceOnUse">
<stop offset="0.15" stop-color="#B32EFF"/>
<stop offset="0.42" stop-color="#CE60D3"/>
<stop offset="0.65" stop-color="#E185B3"/>
<stop offset="0.84" stop-color="#EE9C9F"/>
<stop offset="0.96" stop-color="#F2A498"/>
</linearGradient>
</defs>
</svg>
