<svg id="fe2543dc-e1e0-4b1b-9047-744fbe387b56" data-name="Capa 1" xmlns="http://www.w3.org/2000/svg" xmlns:xlink="http://www.w3.org/1999/xlink" viewBox="0 0 1280 210.58"><defs><style>.be46fa80-7ff2-471b-ac71-cd8a37d3b00c{fill:#0b091e;}.e108c35b-a17b-4752-bcf6-8db15f7ea587{fill:url(#be301bc5-60bc-4cea-9c6c-ddfb9e1f38c3);}.bb34443c-5831-4131-8096-7dae1b0b76fe{fill:url(#bda434da-dde9-462f-b847-5b6bc1d01cbe);}.a4c5da3e-9b32-42c0-a9f9-09129c356edb{fill:url(#e48634c6-7127-4130-abb4-25f1a9977e8a);}</style><linearGradient id="be301bc5-60bc-4cea-9c6c-ddfb9e1f38c3" x1="539.42" y1="197.28" x2="628.87" y2="104.03" gradientUnits="userSpaceOnUse"><stop offset="0.19" stop-color="#089E71"/><stop offset="0.31" stop-color="#b93af5"/><stop offset="0.53" stop-color="#ca59da"/><stop offset="0.82" stop-color="#e48aae"/><stop offset="0.96" stop-color="#f2a498"/></linearGradient><linearGradient id="bda434da-dde9-462f-b847-5b6bc1d01cbe" x1="222.95" y1="194.49" x2="-36.83" y2="-125.44" gradientUnits="userSpaceOnUse"><stop offset="0.15" stop-color="#089E71"/><stop offset="0.42" stop-color="#ce60d3"/><stop offset="0.65" stop-color="#e185b3"/><stop offset="0.84" stop-color="#ee9c9f"/><stop offset="0.96" stop-color="#f2a498"/></linearGradient><linearGradient id="e48634c6-7127-4130-abb4-25f1a9977e8a" x1="7829.85" y1="5372.32" x2="7570.06" y2="5052.37" gradientTransform="translate(7818.93 5388.09) rotate(180)" xlink:href="#bda434da-dde9-462f-b847-5b6bc1d01cbe"/></defs><path class="be46fa80-7ff2-471b-ac71-cd8a37d3b00c" d="M285.13,164.59a35.85,35.85,0,0,1-6.4.54q-6.84,0-9.63-2.52c-1.87-1.68-2.79-4.5-2.79-8.46V54.55c1-.24,2.49-.54,4.59-.91a36.71,36.71,0,0,1,6.21-.54c4.33,0,7.51.79,9.55,2.35s3.06,4.44,3.06,8.64V99.57h45v-45c1-.24,2.49-.54,4.59-.91a36.71,36.71,0,0,1,6.21-.54c4.33,0,7.51.82,9.55,2.44s3.06,4.53,3.06,8.73v99.42q-1.62.36-4.59.9a35.82,35.82,0,0,1-6.39.54q-6.85,0-9.64-2.52t-2.79-8.46V118.3h-45v45.39Q288.1,164.05,285.13,164.59Z"/><path class="be46fa80-7ff2-471b-ac71-cd8a37d3b00c" d="M460.11,121.18A53.2,53.2,0,0,1,457,140,41.15,41.15,0,0,1,448,154.33a38.56,38.56,0,0,1-13.87,9.09,54.1,54.1,0,0,1-36.38,0,39,39,0,0,1-13.87-9A40.1,40.1,0,0,1,375,140.19a53.75,53.75,0,0,1-3.15-19A53.18,53.18,0,0,1,375,102.36a39.48,39.48,0,0,1,9-14.22,39.9,39.9,0,0,1,14-9,53.06,53.06,0,0,1,36,0,39.33,39.33,0,0,1,14,9.1,40.36,40.36,0,0,1,9,14.31A52.64,52.64,0,0,1,460.11,121.18ZM416,94q-9.72,0-15.31,7.11t-5.58,20.08q0,13.15,5.49,20.18t15.4,7q9.9,0,15.4-7.11t5.49-20.09q0-13-5.58-20.08T416,94Z"/><path class="be46fa80-7ff2-471b-ac71-cd8a37d3b00c" d="M515.22,166.39a44.06,44.06,0,0,1-9.64-1,52.63,52.63,0,0,1-8-2.43v33.14q-1.62.36-4.32.9a31.55,31.55,0,0,1-6.13.54q-6.3,0-9.36-2.34t-3.07-8.28V95.61a12.85,12.85,0,0,1,1.72-7,16.68,16.68,0,0,1,5.49-5,57.34,57.34,0,0,1,13-5.31A62.56,62.56,0,0,1,512.34,76a61.18,61.18,0,0,1,18.28,2.61,38.71,38.71,0,0,1,14.5,8.1,37.15,37.15,0,0,1,9.54,14q3.42,8.47,3.42,20.17a55.34,55.34,0,0,1-3.24,19.82,40.85,40.85,0,0,1-8.91,14.23,36.26,36.26,0,0,1-13.51,8.64A49.51,49.51,0,0,1,515.22,166.39ZM511.8,148.2q10.8,0,16.93-6.66t6.12-20.72q0-14.58-6.3-20.71T512.34,94a26.47,26.47,0,0,0-8.56,1.26,43.57,43.57,0,0,0-6.39,2.7v46.29a26.94,26.94,0,0,0,6.39,2.88A27.26,27.26,0,0,0,511.8,148.2Z"/><path class="be46fa80-7ff2-471b-ac71-cd8a37d3b00c" d="M614.85,161.71a7.75,7.75,0,0,1-2.17-5.76V62.29a7.46,7.46,0,0,1,7.93-7.93h59.8a14.17,14.17,0,0,1,1.08,2.44,9.94,9.94,0,0,1,.54,3.33A7.62,7.62,0,0,1,680.59,65a5,5,0,0,1-4.15,1.8H627.27v34.76h47.55A14.17,14.17,0,0,1,675.9,104a9.94,9.94,0,0,1,.54,3.33,7.19,7.19,0,0,1-1.44,4.77,5.11,5.11,0,0,1-4.14,1.71H627.27v37.82h54a14.73,14.73,0,0,1,1.08,2.35,9.74,9.74,0,0,1,.54,3.42,7.19,7.19,0,0,1-1.44,4.77,5.13,5.13,0,0,1-4.15,1.71H620.61A7.78,7.78,0,0,1,614.85,161.71Z"/><path class="be46fa80-7ff2-471b-ac71-cd8a37d3b00c" d="M699.34,150.9q5.58-7.56,11.71-14.76t12.25-14.78q-7.57-9.18-14-17.37T695.92,87a11,11,0,0,1,2.61-5.58,6.54,6.54,0,0,1,5-2,6.9,6.9,0,0,1,4.77,1.53A32,32,0,0,1,712,85q4.68,6.31,9.64,13.42t10.35,14.14q6.66-8.46,12.61-16.12T756.8,79.58a10.11,10.11,0,0,1,2-.18,9.33,9.33,0,0,1,5.94,1.71,5.55,5.55,0,0,1,2.16,4.59,9.12,9.12,0,0,1-.81,3.79,21.64,21.64,0,0,1-2.61,4.14q-5.58,6.84-11.44,14t-11.61,14q7,9.18,14.14,18.1t14.14,17.92a8.7,8.7,0,0,1-2.35,5.4,7.06,7.06,0,0,1-5.22,2,7.62,7.62,0,0,1-5-1.53,29.79,29.79,0,0,1-4.42-4.77q-4.86-6.48-10-13.78t-10.18-14.14q-6.3,8.29-12.7,16.93t-12.33,17.11H704q-4.15,0-6.22-1.8a5.72,5.72,0,0,1-2.07-4.5,7.78,7.78,0,0,1,.63-3A24.09,24.09,0,0,1,699.34,150.9Z"/><path class="be46fa80-7ff2-471b-ac71-cd8a37d3b00c" d="M818.24,90.39a30.49,30.49,0,0,0-11.34,2.07,24.46,24.46,0,0,0-9,6.12A28.81,28.81,0,0,0,792,108.67a40.72,40.72,0,0,0-2.16,13.78q0,15.48,7.74,23.68t20.71,8.2a33.14,33.14,0,0,0,12.61-2.08,49.34,49.34,0,0,0,9-4.77,10.26,10.26,0,0,1,3.24,2.7,6.3,6.3,0,0,1,1.26,4,6.81,6.81,0,0,1-2,4.68,17,17,0,0,1-5.49,3.78,38.74,38.74,0,0,1-8.29,2.61,51,51,0,0,1-10.36,1,53.35,53.35,0,0,1-17.29-2.7,37.45,37.45,0,0,1-13.69-8.1,37,37,0,0,1-9-13.6A52.54,52.54,0,0,1,775,122.45a49.6,49.6,0,0,1,3.42-19.19,40.61,40.61,0,0,1,9.19-13.77,37.12,37.12,0,0,1,13.59-8.38,49.34,49.34,0,0,1,16.66-2.79,51,51,0,0,1,10.36,1,31.39,31.39,0,0,1,8.2,2.79,17.28,17.28,0,0,1,5.31,4.06,7.11,7.11,0,0,1,1.89,4.59,6,6,0,0,1-1.26,3.78,8.46,8.46,0,0,1-3.24,2.52,50,50,0,0,0-8.65-4.68Q825.81,90.39,818.24,90.39Z"/><path class="be46fa80-7ff2-471b-ac71-cd8a37d3b00c" d="M870,164.32a16.32,16.32,0,0,1-4,.45q-7.74,0-7.75-6.48V47.16a21.42,21.42,0,0,1,2.8-.81,17.45,17.45,0,0,1,4.05-.45q7.56,0,7.56,6.48V84.8a55.66,55.66,0,0,1,10.18-4.5,41.17,41.17,0,0,1,13.24-2,45.28,45.28,0,0,1,13.78,2,28.78,28.78,0,0,1,10.71,6,27.55,27.55,0,0,1,7,10.26,38.41,38.41,0,0,1,2.52,14.5v52.41a21.42,21.42,0,0,1-2.8.81,16.65,16.65,0,0,1-3.87.45q-7.74,0-7.74-6.48V111.46q0-10.8-5.94-16T894.1,90.21a30.8,30.8,0,0,0-11.8,2.25A40.42,40.42,0,0,0,872.66,98v65.56A22.5,22.5,0,0,1,870,164.32Z"/><path class="be46fa80-7ff2-471b-ac71-cd8a37d3b00c" d="M979.31,78.32q15.68,0,24.86,7t9.18,22.16v42.68a10.08,10.08,0,0,1-1.53,6,15.16,15.16,0,0,1-4.59,3.87,46.83,46.83,0,0,1-11.44,4.41,63.64,63.64,0,0,1-16.3,1.89q-16.92,0-26.2-6.66T944,140.46q0-11.9,7.75-17.92t21.79-7.48l25.58-2.52v-5q0-9-5.41-13.15t-14.59-4.14a45.82,45.82,0,0,0-14.22,2.16A78.52,78.52,0,0,0,953,97.23a17.15,17.15,0,0,1-2.61-2.88,5.94,5.94,0,0,1-1.17-3.6,6.53,6.53,0,0,1,1.26-4.15,12.27,12.27,0,0,1,4-3.06,44.35,44.35,0,0,1,11.16-3.87A65.45,65.45,0,0,1,979.31,78.32Zm.18,76.19A43.13,43.13,0,0,0,992,153a29.42,29.42,0,0,0,7.12-3V123.89l-22.34,2.34q-9.36.9-13.87,4.23t-4.5,9.82a12.12,12.12,0,0,0,5.22,10.53Q968.88,154.51,979.49,154.51Z"/><path class="be46fa80-7ff2-471b-ac71-cd8a37d3b00c" d="M1079.21,94.89q-5.67-4.68-15.22-4.68A41.67,41.67,0,0,0,1051.2,92a47.39,47.39,0,0,0-9.54,4.14v67.36a23.09,23.09,0,0,1-2.7.81,16.46,16.46,0,0,1-4,.45q-7.74,0-7.74-6.48V96.87a11.48,11.48,0,0,1,1.53-6.21,16.34,16.34,0,0,1,5.31-4.78,53.71,53.71,0,0,1,12.43-5.22A60.35,60.35,0,0,1,1064,78.32q16.4,0,25.85,7.38t9.45,23.24v54.57a21.66,21.66,0,0,1-2.79.81,16.65,16.65,0,0,1-3.87.45q-7.76,0-7.75-6.48V109.66Q1084.88,99.58,1079.21,94.89Z"/><path class="be46fa80-7ff2-471b-ac71-cd8a37d3b00c" d="M1173.16,155.23a26.54,26.54,0,0,1-8.37,4.32,39.8,39.8,0,0,1-12.7,1.8,48.68,48.68,0,0,1-14.95-2.25,32.25,32.25,0,0,1-12.34-7.21,34.88,34.88,0,0,1-8.46-12.87q-3.15-7.92-3.15-19.27a48.57,48.57,0,0,1,3.06-18,34.68,34.68,0,0,1,21.61-20.81,51.14,51.14,0,0,1,16.75-2.61,53,53,0,0,1,15.22,2.07,44.65,44.65,0,0,1,11.62,5.13,18.24,18.24,0,0,1,4.41,4.06,8.81,8.81,0,0,1,1.71,5.49v72.4a35.09,35.09,0,0,1-3,15.22,26.13,26.13,0,0,1-8.29,10.09,35.68,35.68,0,0,1-12.51,5.67,63.82,63.82,0,0,1-15.49,1.8,55.54,55.54,0,0,1-15.58-1.89A40.83,40.83,0,0,1,1124,195q-5.4-3.06-5.4-7.74a7.33,7.33,0,0,1,1.17-4.24,7.76,7.76,0,0,1,3-2.61,39.79,39.79,0,0,0,10.63,5.32,44.4,44.4,0,0,0,15,2.43q12.06,0,18.46-5.14t6.39-16.48Zm-19.45-5.77c8.66,0,17.23-4,19.45-7.38V95.25a33.79,33.79,0,0,0-7.65-3.51,34.62,34.62,0,0,0-10.9-1.53q-12.25,0-19.54,7.38t-7.29,22a41.77,41.77,0,0,0,2,13.78,24.76,24.76,0,0,0,5.49,9.28,20.7,20.7,0,0,0,8.28,5.22A31.48,31.48,0,0,0,1153.71,149.46Z"/><path class="be46fa80-7ff2-471b-ac71-cd8a37d3b00c" d="M1215.7,127.34q1.52,24,27.38,27.69a35.79,35.79,0,0,0,13.9-.58,40.2,40.2,0,0,0,10.39-4c2.62,2.07,3.72,4.53,3.32,7.38a7,7,0,0,1-2.91,4.51,20.16,20.16,0,0,1-6.64,3.24,42,42,0,0,1-9.32,1.6,54.4,54.4,0,0,1-11.12-.48q-20.68-2.92-31.14-15.85t-7.41-34.52a52.39,52.39,0,0,1,5.5-17.68,39.24,39.24,0,0,1,10.1-12.31,35.82,35.82,0,0,1,13.77-6.7,42.53,42.53,0,0,1,16.29-.7,40.28,40.28,0,0,1,14.42,4.76,34.11,34.11,0,0,1,10.61,9.23,35.71,35.71,0,0,1,6,12.67,38.73,38.73,0,0,1,.69,15.11c-.37,2.62-1.23,4.4-2.58,5.36a8.36,8.36,0,0,1-5.28,1.35ZM1246,90.51a23.86,23.86,0,0,0-19.08,5q-8.21,6.57-10.55,20.61l50,.14a26.49,26.49,0,0,0-4.58-17.11Q1256.7,92,1246,90.51Z"/><circle class="e108c35b-a17b-4752-bcf6-8db15f7ea587" cx="582.2" cy="152.68" r="13.17"/><path class="bb34443c-5831-4131-8096-7dae1b0b76fe" d="M208.27,69.76,164,5.31c-7-10.13-22.7-4.74-22.18,7.53.47,11.19,4.65,23,14.66,37.56a0,0,0,0,1-.06.06C152.29,47.4,90.57,1.06,17.21,25.74l-.08,0C9,28.79,4.9,35.4,7,43.17c1.89,7.19,9.26,11.5,16.59,10.28C39.12,50.86,54.59,49.63,69.8,51a124.44,124.44,0,0,1,43.93,12c13.86,6.75,26.4,16.44,37.93,27.46,13,12.39,29.07,38.83,29.07,38.83a8.13,8.13,0,0,0,9.84,3.68,8.39,8.39,0,0,0,4.76-10.91,169.47,169.47,0,0,0-12.51-26s0-.08.05-.06c5.43,2,10.44,4.58,16.38,3.19a15.93,15.93,0,0,0,11.07-9A21,21,0,0,0,208.27,69.76Z"/><path class="a4c5da3e-9b32-42c0-a9f9-09129c356edb" d="M3.79,140.5l44.55,64.82c7,10.13,22.42,4.57,21.94-7.71-.43-11.24-4.6-23.14-14.66-37.74,0,0,0-.1.05-.07,4.1,3.07,65.82,49.4,139.17,24.72l.09,0c8.1-3,12.23-9.64,10.18-17.41-1.9-7.18-9.27-11.5-16.6-10.28-15.58,2.59-31,3.82-46.25,2.49a124.63,124.63,0,0,1-43.94-12c-13.86-6.76-26.4-16.44-37.93-27.46C47.42,107.41,31.33,81,31.33,81a8.16,8.16,0,0,0-10.24-3.53c-4.15,1.71-5.92,6.65-4.33,10.85a168.81,168.81,0,0,0,12.48,25.93,0,0,0,0,1-.06.06c-5.42-2-10.44-4.58-16.38-3.19a16,16,0,0,0-11.07,9A21,21,0,0,0,3.79,140.5Z"/></svg>