<svg id="Layer_1" xmlns="http://www.w3.org/2000/svg" viewBox="0 0 32 32"><style>.st1,.st2,.st3{fill-rule:evenodd;clip-rule:evenodd;fill:#37bdf3}.st2,.st3{fill:#3192f5}.st3{fill:#3071ea}</style><circle cx="16" cy="16" r="16" fill-rule="evenodd" clip-rule="evenodd" fill="#ffffff"/><path class="st1" d="M13.9 14.7l2.1 4.7 3.2-1.8V14l-5.3.7z"/><path class="st2" d="M23.3 11.2l-2-.7-2.1-.2v11.3l3.2 1.8 2.5-5.1-1.6-4.9v-2.2z"/><path class="st1" d="M23.1 10.3l-.7 1.8v11.3l3.2-1.8V10.3h-2.5z"/><path class="st3" d="M22.3 8.5l-3.2 1.8 3.2 1.8 3.2-1.8-3.2-1.8z"/><path class="st2" d="M16 15.8l-3.2-3.5-6.3-1.9v11.3l3.2 1.8.9-6.3 2.3.4 3.2 1.8-.1-3.6z"/><path class="st3" d="M9.7 8.5l-3.2 1.8 9.5 5.5 1.4-.8 1.7-1-9.4-5.5z"/><path class="st1" d="M9.7 15.8v7.7l3.2-1.8v-4l-3.2-1.9z"/></svg>