<svg width="30" height="30" viewBox="0 0 30 30" fill="none" xmlns="http://www.w3.org/2000/svg">
<path d="M8.46104 6C13.134 6 16.9218 10.0128 16.9218 14.9626C16.9218 19.9123 13.1337 23.9248 8.46104 23.9248C3.78841 23.9248 0 19.9123 0 14.9626C0 10.0128 3.78813 6 8.46104 6ZM21.9727 6.525C24.3092 6.525 26.2032 10.3023 26.2032 14.9626H26.2035C26.2035 19.6217 24.3095 23.4001 21.973 23.4001C19.6366 23.4001 17.7425 19.6217 17.7425 14.9626C17.7425 10.3035 19.6363 6.525 21.9727 6.525ZM28.5121 7.40384C29.3336 7.40384 30 10.7879 30 14.9626C30 19.136 29.334 22.5213 28.5121 22.5213C27.6903 22.5213 27.0246 19.1369 27.0246 14.9626C27.0246 10.7882 27.6906 7.40384 28.5121 7.40384Z" fill="black"/>
</svg>
