<svg width="32" height="18" viewBox="0 0 32 18" fill="none" xmlns="http://www.w3.org/2000/svg">
<path d="M9.02511 0C14.0096 0 18.0499 4.01283 18.0499 8.96257C18.0499 13.9123 14.0093 17.9248 9.02511 17.9248C4.04097 17.9248 0 13.9123 0 8.96257C0 4.01283 4.04067 0 9.02511 0ZM23.4376 0.525004C25.9298 0.525004 27.9501 4.30225 27.9501 8.96257H27.9504C27.9504 13.6217 25.9301 17.4001 23.4379 17.4001C20.9457 17.4001 18.9253 13.6217 18.9253 8.96257C18.9253 4.30346 20.9454 0.525004 23.4376 0.525004ZM30.4129 1.40384C31.2892 1.40384 32 4.78794 32 8.96257C32 13.136 31.2896 16.5213 30.4129 16.5213C29.5363 16.5213 28.8262 13.1369 28.8262 8.96257C28.8262 4.78824 29.5366 1.40384 30.4129 1.40384Z" fill="#3C1A50"/>
</svg>
