<svg id="a0d803f3-209d-4dd6-8bab-107917edeff8" data-name="Capa 1" xmlns="http://www.w3.org/2000/svg" xmlns:xlink="http://www.w3.org/1999/xlink" viewBox="0 0 1280 482.97"><defs><style>.ad7bfdc3-2843-4a04-8ddd-e7c081f89275{fill:#0b091e;}.a301d2af-bfb6-48f3-bce4-be1314e4f11f{fill:url(#ae317d9f-0a11-4c8f-8eb4-f22a85c45813);}.b98494a8-1f52-45ca-ab80-4ab5ab59d2ca{fill:url(#a7990bc1-1504-4615-a3d3-29cc76189910);}</style><linearGradient id="ae317d9f-0a11-4c8f-8eb4-f22a85c45813" x1="511.34" y1="446.08" x2="-84.47" y2="-287.71" gradientUnits="userSpaceOnUse"><stop offset="0.15" stop-color="#b32eff"/><stop offset="0.42" stop-color="#ce60d3"/><stop offset="0.65" stop-color="#e185b3"/><stop offset="0.84" stop-color="#ee9c9f"/><stop offset="0.96" stop-color="#f2a498"/></linearGradient><linearGradient id="a7990bc1-1504-4615-a3d3-29cc76189910" x1="622.53" y1="5315.63" x2="26.7" y2="4581.82" gradientTransform="translate(597.51 5351.81) rotate(180)" xlink:href="#ae317d9f-0a11-4c8f-8eb4-f22a85c45813"/></defs><path class="ad7bfdc3-2843-4a04-8ddd-e7c081f89275" d="M654,377.5a81.79,81.79,0,0,1-14.67,1.24q-15.7,0-22.1-5.78t-6.4-19.42V125.11q3.3-.84,10.53-2.08a84.89,84.89,0,0,1,14.26-1.23q14.86,0,21.89,5.37t7,19.83v81.38H767.76V125.11q3.3-.84,10.54-2.08a84.68,84.68,0,0,1,14.25-1.23q14.87,0,21.89,5.57t7,20v228c-2.48.55-6,1.25-10.54,2.07a81.59,81.59,0,0,1-14.66,1.24q-15.71,0-22.1-5.78t-6.41-19.42v-82.2H664.49V375.43C662,376,658.5,376.68,654,377.5Z"/><path class="ad7bfdc3-2843-4a04-8ddd-e7c081f89275" d="M1055.28,277.94q0,24-7.23,43.18A94.25,94.25,0,0,1,1027.6,354a88.14,88.14,0,0,1-31.8,20.86q-18.6,7.21-41.73,7.23t-41.72-7.23a89.45,89.45,0,0,1-31.81-20.66,91.94,91.94,0,0,1-20.45-32.63q-7.23-19.21-7.23-43.59,0-23.94,7.23-43.16a90.56,90.56,0,0,1,20.66-32.64,91.69,91.69,0,0,1,32-20.65q18.6-7.23,41.31-7.23t41.31,7.23a90.33,90.33,0,0,1,32,20.86,92.82,92.82,0,0,1,20.65,32.84Q1055.26,254.41,1055.28,277.94ZM954.07,215.57q-22.3,0-35.11,16.31t-12.81,46.06q0,30.17,12.6,46.27t35.32,16.11q22.71,0,35.32-16.32t12.6-46.06q0-29.73-12.81-46.06T954.07,215.57Z"/><path class="ad7bfdc3-2843-4a04-8ddd-e7c081f89275" d="M1181.68,381.63a101.18,101.18,0,0,1-22.1-2.27,121.69,121.69,0,0,1-18.38-5.57v76q-3.72.82-9.91,2.07a72.55,72.55,0,0,1-14,1.24q-14.46,0-21.48-5.37t-7-19V219.29q0-9.91,3.92-16.11t12.6-11.57q12-7,29.75-12.19t40.07-5.16a140.41,140.41,0,0,1,41.93,6,88.73,88.73,0,0,1,33.25,18.59q14,12.6,21.89,32t7.85,46.27q0,26-7.43,45.44t-20.45,32.63a83.08,83.08,0,0,1-31,19.83A113.73,113.73,0,0,1,1181.68,381.63Zm-7.84-41.72q24.78,0,38.83-15.29t14-47.5q0-33.45-14.46-47.5t-37.17-14.05a60.92,60.92,0,0,0-19.63,2.89,100.7,100.7,0,0,0-14.66,6.2V330.82a61.35,61.35,0,0,0,14.66,6.61A62.62,62.62,0,0,0,1173.84,339.91Z"/><path class="a301d2af-bfb6-48f3-bce4-be1314e4f11f" d="M477.67,160,376.05,12.17C360.09-11,324,1.3,325.18,29.45c1.08,25.66,10.67,52.82,33.62,86.15a.1.1,0,0,1-.13.14c-9.39-7-150.94-113.3-319.2-56.7l-.19,0C20.71,66,11.23,81.19,15.93,99,20.28,115.49,37.19,125.39,54,122.6c35.74-5.95,71.21-8.78,106.09-5.72s69,12,100.77,27.61,60.55,37.7,87,63c29.75,28.43,66.66,89.06,66.66,89.06A18.71,18.71,0,0,0,437.09,305c10-3.58,14.66-15.11,10.9-25a387.07,387.07,0,0,0-28.69-59.67.1.1,0,0,1,.13-.15c12.44,4.68,23.95,10.51,37.57,7.32,11.11-2.61,20.86-10.17,25.39-20.75A48.07,48.07,0,0,0,477.67,160Z"/><path class="b98494a8-1f52-45ca-ab80-4ab5ab59d2ca" d="M8.68,322.24,110.87,470.9c16,23.24,51.42,10.5,50.33-17.68-1-25.78-10.57-53.05-33.63-86.55-.07-.1,0-.23.12-.16,9.41,7,151,113.29,319.19,56.7a1.46,1.46,0,0,0,.2,0c18.57-6.94,28-22.1,23.34-39.93-4.34-16.48-21.25-26.38-38.05-23.58-35.75,6-71.21,8.77-106.1,5.71s-69-12-100.76-27.6-60.55-37.71-87-63c-29.74-28.43-66.66-89.06-66.66-89.06a18.69,18.69,0,0,0-23.47-8.12c-9.52,4-13.59,15.25-9.94,24.89A386.94,386.94,0,0,0,67.06,262a.11.11,0,0,1-.13.16c-12.44-4.68-24-10.51-37.57-7.32C18.25,257.4,8.49,265,4,275.55A48.07,48.07,0,0,0,8.68,322.24Z"/></svg>