<?xml version="1.0" encoding="utf-8"?>
<!-- Generator: Adobe Illustrator 26.2.1, SVG Export Plug-In . SVG Version: 6.00 Build 0)  -->
<svg version="1.1" id="Layer_1" xmlns="http://www.w3.org/2000/svg" xmlns:xlink="http://www.w3.org/1999/xlink" x="0px" y="0px"
	 width="257px" height="256px" viewBox="0 0 257 256" style="enable-background:new 0 0 257 256;" xml:space="preserve">
<style type="text/css">
	.st0{fill:#009B6C;}
	.st1{fill:#070707;}
	.st2{fill:#FFFFFF;}
	.st3{fill:#E24D4D;}
</style>
<g>
	<path class="st0" d="M256,155c0,55.8-57.3,101-128,101C57.3,256,0,210.8,0,155c0-22,8.9-42.3,24-58.9c1.7-1.9,1.8-4.8,0.1-6.7
		c-8-9.5-12.8-21.9-12.7-35.5c0-29.9,23.9-54.2,52.7-54c28.6,0.3,51.8,24.4,51.8,54.1c0,0.1,0,0.3,0,0.4c4-0.3,8-0.4,12.1-0.4
		c4.1,0,8.2,0.2,12.2,0.5c0-0.1,0-0.3,0-0.5c0-29.7,23.1-53.8,51.8-54.1c28.9-0.3,52.7,24.1,52.7,54c0,13.6-4.8,26-12.8,35.5
		c-1.6,2-1.6,4.8,0.1,6.7C247.1,112.8,256,133.1,256,155z"/>
	<path class="st1" d="M173.3,209.5c-13.3,7.9-28.8,13.3-45.3,13.3c-16.5,0-32-5.5-45.2-13.3c-27.1-16.1-44.8-42.2-41.9-52.2
		c0.1-0.4,0.2-0.7,0.4-1.1c4.5-8.9,28.4,3.8,86.7,3.9c58.4,0.1,82.4-12.6,86.8-3.7c0.1,0.3,0.3,0.6,0.4,0.9
		C218.2,167.2,200.5,193.4,173.3,209.5z"/>
	<ellipse class="st2" cx="65.9" cy="56.7" rx="32.1" ry="33.2"/>
	<ellipse class="st2" cx="190.1" cy="56.7" rx="32.1" ry="33.2"/>
	<ellipse class="st1" cx="115.7" cy="128" rx="7" ry="10"/>
	<ellipse class="st1" cx="140.3" cy="128" rx="7" ry="10"/>
	<path class="st3" d="M173.3,209.5c-13.3,7.9-28.8,13.3-45.3,13.3c-16.5,0-32-5.5-45.2-13.3c8-6.4,25.3-10.8,45.3-10.8
		C148,198.8,165.3,203.2,173.3,209.5z"/>
	<path class="st2" d="M215.2,157.4c-10,12.7-45.2,22-87.2,22c-42,0-77.2-9.4-87.2-22.1c0.1-0.4,0.2-0.7,0.4-1.1
		c4.5-8.9,28.4,3.8,86.7,3.9c58.4,0.1,82.4-12.6,86.8-3.7C214.9,156.7,215.1,157,215.2,157.4z"/>
	<ellipse class="st1" cx="65.9" cy="56.7" rx="14.5" ry="15"/>
	<ellipse class="st1" cx="190.1" cy="56.7" rx="14.5" ry="15"/>
</g>
</svg>
