<svg width="480" height="480" viewBox="0 0 480 480" fill="none" xmlns="http://www.w3.org/2000/svg"><mask id="mask0-911594" maskUnits="userSpaceOnUse" x="0" y="0" width="480" height="480"><circle cx="240" cy="240" r="240" fill="url(#paint0_linear-791375)"/></mask><g mask="url(#mask0-911594)"><circle cx="240" cy="240" r="240" fill="#31D8A4"/><circle cx="240" cy="240" r="208" fill="#fff"/></g><circle cx="240" cy="240" r="184" fill="#0E052F"/><path d="M233.84 323.04c-8-.64-15.52-2.4-22.56-5.28-7.04-3.04-13.12-6.96-18.24-11.76-5.12-4.8-9.2-10.32-12.24-16.56-3.04-6.24-4.64-13.04-4.8-20.4h29.52c.32 7.84 3.04 14.4 8.16 19.68 5.28 5.12 12 8.08 20.16 8.88v-47.52l-11.28-1.68c-12.96-1.76-23.28-6.64-30.96-14.64-7.52-8-11.28-18.16-11.28-30.48 0-6.4 1.44-12.4 4.32-18 2.88-5.76 6.8-10.8 11.76-15.12 4.96-4.48 10.64-8.08 17.04-10.8a69.36 69.36 0 0120.4-5.04V132h17.52v22.8c7.2.96 13.84 2.88 19.92 5.76 6.08 2.72 11.36 6.24 15.84 10.56s8 9.28 10.56 14.88c2.72 5.6 4.24 11.6 4.56 18h-29.52c-.32-5.76-2.48-10.72-6.48-14.88-3.84-4.32-8.8-7.28-14.88-8.88v43.92l8.16 1.2c6.08.96 11.84 2.64 17.28 5.04 5.44 2.4 10.16 5.52 14.16 9.36 4.16 3.84 7.36 8.48 9.6 13.92 2.4 5.28 3.6 11.28 3.6 18 0 7.2-1.36 13.76-4.08 19.68-2.56 5.76-6.24 10.88-11.04 15.36-4.64 4.32-10.24 7.92-16.8 10.8-6.4 2.72-13.36 4.48-20.88 5.28v24.72h-17.52v-24.48zm17.52-25.68c7.52-1.28 13.36-4 17.52-8.16 4.16-4.32 6.24-9.76 6.24-16.32 0-6.08-2-10.56-6-13.44-4-3.04-8.56-5.04-13.68-6l-4.08-.72v44.64zm-17.52-117.84c-6.72.96-12.48 3.44-17.28 7.44-4.64 3.84-6.96 9.04-6.96 15.6 0 5.6 1.52 9.84 4.56 12.72 3.2 2.72 7.36 4.48 12.48 5.28l7.2 1.2v-42.24z" fill="#fff"/><defs><linearGradient id="paint0_linear-791375" x1="240" y1="0" x2="240" y2="701.818" gradientUnits="userSpaceOnUse"><stop stop-color="#08021E"/><stop offset="1" stop-color="#1F0777"/></linearGradient></defs></svg>