<svg width="30" height="30" viewBox="0 0 30 30" fill="none" xmlns="http://www.w3.org/2000/svg">
<g clip-path="url(#clip0)">
<path d="M30 5.69813C28.8844 6.1875 27.6956 6.51187 26.4562 6.66937C27.7312 5.90812 28.7044 4.71187 29.1619 3.27C27.9731 3.97875 26.6606 4.47938 25.2619 4.75875C24.1331 3.55688 22.5244 2.8125 20.7694 2.8125C17.3644 2.8125 14.6231 5.57625 14.6231 8.96438C14.6231 9.45188 14.6644 9.92062 14.7656 10.3669C9.6525 10.1175 5.12813 7.66688 2.08875 3.93375C1.55812 4.85438 1.24688 5.90812 1.24688 7.0425C1.24688 9.1725 2.34375 11.0606 3.97875 12.1537C2.99062 12.135 2.02125 11.8481 1.2 11.3962C1.2 11.415 1.2 11.4394 1.2 11.4637C1.2 14.4525 3.33187 16.935 6.1275 17.5069C5.62687 17.6438 5.08125 17.7094 4.515 17.7094C4.12125 17.7094 3.72375 17.6869 3.35062 17.6044C4.1475 20.04 6.40875 21.8306 9.0975 21.8888C7.005 23.5256 4.34812 24.5119 1.47188 24.5119C0.9675 24.5119 0.48375 24.4894 0 24.4275C2.72438 26.1844 5.95312 27.1875 9.435 27.1875C20.7525 27.1875 26.94 17.8125 26.94 9.68625C26.94 9.41437 26.9306 9.15188 26.9175 8.89125C28.1381 8.025 29.1637 6.94313 30 5.69813Z" fill="#3C1A50"/>
</g>
<defs>
<clipPath id="clip0">
<rect width="30" height="30" fill="white"/>
</clipPath>
</defs>
</svg>
