<svg width="7" height="12" viewBox="0 0 7 12" fill="none" xmlns="http://www.w3.org/2000/svg">
<path d="M6.30712 4.68564C6.25031 4.48972 6.12458 4.36365 5.9859 4.36365H3.85474L4.44957 0.677776C4.48891 0.434141 4.41574 0.180397 4.27239 0.0631252C4.12908 -0.0541104 3.95251 -0.00461983 3.84481 0.183088L0.0889552 6.7285C-0.00315703 6.88901 -0.0259034 7.11839 0.0309038 7.31432C0.0877345 7.51032 0.213485 7.63635 0.352123 7.63635H2.48331L1.88845 11.3222C1.84913 11.5659 1.92228 11.8196 2.06564 11.9369C2.11765 11.9794 2.17402 12 2.22991 12C2.32803 12 2.4246 11.9365 2.49322 11.8169L6.24907 5.27149C6.3412 5.11095 6.36393 4.88161 6.30712 4.68564ZM2.91939 9.43223L3.27589 7.22323C3.3022 7.06025 3.27856 6.88763 3.21183 6.75527C3.14509 6.62283 3.04272 6.54545 2.93427 6.54545H1.13623L3.41866 2.5678L3.06216 4.77681C3.03587 4.93975 3.0595 5.1124 3.12622 5.24477C3.19295 5.3772 3.29533 5.45455 3.40375 5.45455H5.20182L2.91939 9.43223Z" fill="#23213A"/>
</svg>
