<svg width="30" height="30" viewBox="0 0 30 30" fill="none" xmlns="http://www.w3.org/2000/svg">
<path d="M26.0951 16.9621C24.2961 17.3747 22.4218 17.3237 20.6479 16.8137C18.8741 16.3037 17.2588 15.3514 15.9537 14.0463C14.6486 12.7412 13.6964 11.126 13.1864 9.35211C12.6764 7.57826 12.6253 5.70393 13.038 3.90494L13.0378 3.90491C11.1438 4.34181 9.40132 5.27774 7.99121 6.61552C6.58111 7.9533 5.55481 9.64415 5.01887 11.5125C4.48294 13.3809 4.45692 15.3587 4.9435 17.2405C5.43008 19.1224 6.41153 20.8396 7.78595 22.2141C9.16037 23.5885 10.8776 24.5699 12.7595 25.0565C14.6413 25.5431 16.6191 25.5171 18.4875 24.9812C20.3558 24.4452 22.0467 23.4189 23.3845 22.0088C24.7223 20.5987 25.6582 18.8562 26.0951 16.9622L26.0951 16.9621Z" stroke="#666077" stroke-width="2" stroke-linecap="round" stroke-linejoin="round"/>
</svg>
