<svg width="30" height="30" viewBox="0 0 30 30" fill="none" xmlns="http://www.w3.org/2000/svg">
<path d="M24.1688 16.176C24.2182 15.792 24.2552 15.408 24.2552 15C24.2552 14.592 24.2182 14.208 24.1688 13.824L26.7719 11.844C27.0063 11.664 27.068 11.34 26.9199 11.076L24.4526 6.92405C24.3045 6.66005 23.9715 6.56405 23.7001 6.66005L20.6282 7.86004C19.9867 7.38005 19.2959 6.98405 18.5433 6.68405L18.0745 3.50406C18.0541 3.36287 17.9815 3.23377 17.8702 3.14098C17.7589 3.04819 17.6166 2.99808 17.4701 3.00006H12.5354C12.227 3.00006 11.9679 3.21606 11.9309 3.50406L11.4621 6.68405C10.7096 6.98405 10.0187 7.39205 9.37722 7.86004L6.30539 6.66005C6.02165 6.55205 5.7009 6.66005 5.55286 6.92405L3.08553 11.076C2.92516 11.34 2.99918 11.664 3.23357 11.844L5.8366 13.824C5.78726 14.208 5.75025 14.604 5.75025 15C5.75025 15.396 5.78726 15.792 5.8366 16.176L3.23357 18.156C2.99918 18.336 2.93749 18.66 3.08553 18.924L5.55286 23.076C5.7009 23.34 6.03399 23.436 6.30539 23.34L9.37722 22.14C10.0187 22.62 10.7096 23.016 11.4621 23.316L11.9309 26.496C11.9679 26.784 12.227 27 12.5354 27H17.4701C17.7785 27 18.0375 26.784 18.0745 26.496L18.5433 23.316C19.2959 23.016 19.9867 22.608 20.6282 22.14L23.7001 23.34C23.9838 23.448 24.3045 23.34 24.4526 23.076L26.9199 18.924C27.068 18.66 27.0063 18.336 26.7719 18.156L24.1688 16.176ZM15.0027 19.2C12.6218 19.2 10.6849 17.316 10.6849 15C10.6849 12.684 12.6218 10.8 15.0027 10.8C17.3837 10.8 19.3205 12.684 19.3205 15C19.3205 17.316 17.3837 19.2 15.0027 19.2Z" fill="#666077"/>
</svg>
