<svg width="480" height="480" viewBox="0 0 480 480" fill="none" xmlns="http://www.w3.org/2000/svg"><circle cx="240" cy="240" r="240" fill="url(#paint0_linear)"/><path d="M413.332 74h-44.615c-26.479 0-49.238 10.625-68.278 31.874L246.427 172h98.441l16.957-20.643c3.287-3.762 7.334-5.647 12.149-5.647h86.795a236.19 236.19 0 00-3.128-7h-83.667c-6.927 0-12.865 2.828-17.42 8.042l-.07.08L341.559 165h-80.376l44.574-54.572C323.562 90.611 344.443 81 368.717 81h51.061a240.48 240.48 0 00-6.446-7zM66.667 406h45.017c26.479 0 49.239-10.732 68.278-32.205L233.888 308h-98.686l-16.626 20.303c-3.508 3.771-7.554 5.648-12.149 5.648H19.086a238.894 238.894 0 003.114 7h84.227c6.778 0 12.614-2.87 17.274-7.88l.151-.162L138.518 315H219.1l-44.464 54.252C156.819 389.299 135.94 399 111.684 399H60.221a240.688 240.688 0 006.446 7zm394.243-72.04h-86.936c-4.603 0-8.535-1.77-11.822-5.317L345.245 308h-98.397l53.918 65.795C319.585 395.268 342.238 406 368.717 406h44.615a239.704 239.704 0 006.446-7h-51.061c-24.257 0-45.021-9.701-62.611-29.732L261.634 315h80.296l14.942 18.244.145.156c4.535 4.895 10.294 7.56 16.957 7.56h83.821a239.708 239.708 0 003.115-7zM19.23 145.71h87.197c4.816 0 8.862 1.885 12.149 5.647L135.439 172h41.187l28.614-34.922-25.278-30.873C160.923 84.741 138.269 74 112.011 74H66.667a241.47 241.47 0 00-6.446 7h51.79c24.015 0 44.794 9.694 62.624 29.748l21.557 26.328L173.312 165H138.76l-14.836-18.161-.077-.087c-4.554-5.214-10.493-8.042-17.42-8.042H22.358a238.014 238.014 0 00-3.127 7z" fill="#00D1FF"/><path d="M171.023 236.808c5.184.768 9.12 2.56 11.808 5.376 2.688 2.752 4.032 6.432 4.032 11.04 0 3.456-.896 6.688-2.688 9.696-1.728 2.944-4.576 5.376-8.544 7.296-3.968 1.856-9.056 2.784-15.264 2.784h-55.488v-68.16h55.104c8.32 0 14.592 1.504 18.816 4.512 4.288 3.008 6.432 7.168 6.432 12.48 0 3.648-1.184 6.816-3.552 9.504-2.368 2.688-5.92 4.512-10.656 5.472zm-41.568-16.8v11.424h23.04c2.56 0 4.384-.576 5.472-1.728 1.088-1.152 1.632-2.592 1.632-4.32 0-3.584-2.368-5.376-7.104-5.376h-23.04zm24 37.824c2.56 0 4.48-.64 5.76-1.92 1.344-1.28 2.016-2.848 2.016-4.704 0-1.856-.672-3.328-2.016-4.416-1.344-1.152-3.264-1.728-5.76-1.728h-24v12.768h24zm125.2-52.992v18.72h-26.304V273h-24.48v-49.44h-26.208v-18.72h76.992zm58.423 70.464c-9.088 0-17.056-1.472-23.904-4.416-6.784-2.944-12.032-7.136-15.744-12.576-3.712-5.44-5.568-11.776-5.568-19.008 0-7.104 1.952-13.44 5.856-19.008s9.344-9.92 16.32-13.056c6.976-3.136 14.912-4.704 23.808-4.704 7.424 0 14.176 1.056 20.256 3.168 6.144 2.048 11.232 4.992 15.264 8.832 4.096 3.84 6.912 8.352 8.448 13.536l-25.44 4.8c-1.024-3.968-3.104-6.976-6.24-9.024-3.136-2.048-7.232-3.072-12.288-3.072-6.208 0-11.104 1.632-14.688 4.896-3.584 3.264-5.376 7.68-5.376 13.248 0 5.632 1.76 10.048 5.28 13.248 3.584 3.2 8.512 4.8 14.784 4.8 5.056 0 9.184-1.024 12.384-3.072 3.2-2.048 5.28-5.024 6.24-8.928l25.152 5.568c-2.752 7.808-8.032 13.888-15.84 18.24-7.808 4.352-17.376 6.528-28.704 6.528z" fill="#fff"/><defs><linearGradient id="paint0_linear" x1="240" y1="0" x2="240" y2="701.818" gradientUnits="userSpaceOnUse"><stop stop-color="#08021E"/><stop offset="1" stop-color="#1F0777"/></linearGradient></defs></svg>